<mxfile host="app.diagrams.net" modified="2024-03-01T03:26:24.613Z" agent="Mozilla/5.0 (Macintosh; Intel Mac OS X 10_15_7) AppleWebKit/537.36 (KHTML, like Gecko) Chrome/121.0.0.0 Safari/537.36" version="23.1.6" etag="kaaf3b_m0CPTlw_zohsy" type="github">
  <diagram name="第 1 页" id="0Yk_qv28BxuvW2g-oHde">
    <mxGraphModel>
      <root>
        <mxCell id="0" />
        <mxCell id="1" parent="0" />
      </root>
    </mxGraphModel>
  </diagram>
</mxfile>
